# xmcd
#
# Track frame offsets:
#	150
#	11404
#	31455
#	47664
#	60953
#	79280
#	94906
#	111694
#	126938
#	147351
#	158830
#	176799
#	192822
#	206551
#
# Disc length: 2982 seconds
#
# Revision: 1
# Processed by: cddbd v1.5.2PL0 Copyright (c) Steve Scherf et al.
# Submitted via: audiograbber 1.83.01
#
DISCID=c40ba40e
DTITLE=QUINTETO AGRESTE - CAMINHANDO SEMPRE
DYEAR=2003
DGENRE=POP
TTITLE0=ANTES QUE A PALAVRA RIME
TTITLE1=CAMINHANDO SEMPRE
TTITLE2=ARATACANTO
TTITLE3=CORRERIA
TTITLE4=CEARÁ DE LUZ
TTITLE5=FAINA
TTITLE6=PÁSSARO DE LUZ
TTITLE7=O OLHO DE COARACI
TTITLE8=O ESPINHO FERIU A FULÔ
TTITLE9=SOL CARNAUBEIRA
TTITLE10=CANTO TRISTE
TTITLE11=MEDO
TTITLE12=FORTALEZA MARINHA
TTITLE13=CIDADE VELHA
EXTD=
EXTT0=
EXTT1=
EXTT2=
EXTT3=
EXTT4=
EXTT5=
EXTT6=
EXTT7=
EXTT8=
EXTT9=
EXTT10=
EXTT11=
EXTT12=
EXTT13=
PLAYORDER=
